<svg xmlns="http://www.w3.org/2000/svg" width="521" height="507" viewBox="0 0 521 507">
    <g fill="none" fill-rule="evenodd" stroke="#A8ABAB" opacity=".303">
        <path stroke-dasharray="2.133,8.266999999999999" stroke-width="3.947" d="M297 298c-44.979 8.588-79.837 45.795-85 92M214 421c8.58 44.975 45.787 79.832 92 85M337 505c44.979-8.588 79.837-45.795 85-92"/>
        <path stroke-dasharray="2.134,8.266999999999999" stroke-width="3.947" d="M421 382c-8.58-44.975-45.787-79.832-92-85"/>
        <path stroke-width="3.947" d="M212.068 397.656a109.398 109.398 0 0 0 0 7.688M313.65 506.932a109.836 109.836 0 0 0 7.698 0M422.93 405.344a104.69 104.69 0 0 0 0-7.688M321.348 296.07a105.189 105.189 0 0 0-7.698 0"/>
        <path stroke-dasharray="10.121,10.121" stroke-width=".987" d="M97 44C47.887 55.644 9.947 95.874 2 146M3 196c11.793 48.618 52.41 86.161 103 94M155 288c49.113-11.644 87.053-51.874 95-102M248 137c-11.793-48.618-52.41-86.161-103-94"/>
        <path stroke-width=".987" d="M.383 156.17a126.496 126.496 0 0 0 0 19.66m115.29 114.793a128.416 128.416 0 0 0 19.655 0m115.289-114.794c.255-3.243.383-6.52.383-9.83 0-3.307-.128-6.585-.383-9.828M135.327 41.377a128.404 128.404 0 0 0-19.655 0"/>
        <path stroke-width="1.48" d="M337 0C235.379 0 153 84.171 153 188s82.379 188 184 188 184-84.171 184-188S438.621 0 337 0z"/>
    </g>
</svg>
