<svg xmlns="http://www.w3.org/2000/svg" width="40" height="40" viewBox="0 0 40 40">
    <g fill="none" fill-rule="evenodd">
        <circle cx="20" cy="20" r="20" fill="#FFF"/>
        <g fill="#2D4252" fill-rule="nonzero">
            <path d="M8 27.68c4.4 0 9.32.48 11.2 2.28v-17.6c-1.88-1.8-6.8-2.28-11.2-2.28v17.6zm3.24-14.32a24.76 24.76 0 0 1 5.8.96.8.8 0 0 1-.24 1.56h-.24a23.2 23.2 0 0 0-5.44-.92.802.802 0 0 1 .12-1.6zm0 3a24.76 24.76 0 0 1 5.8.96.8.8 0 0 1-.24 1.56h-.24a23.24 23.24 0 0 0-5.44-.92.802.802 0 0 1 .12-1.6zm0 3.2a24.76 24.76 0 0 1 5.8.96.8.8 0 0 1-.24 1.56h-.24a23.24 23.24 0 0 0-5.44-.92.802.802 0 0 1 .12-1.6zm0 3a24.76 24.76 0 0 1 5.8.96.8.8 0 0 1-.24 1.56h-.24a23.2 23.2 0 0 0-5.44-.92.802.802 0 0 1 .12-1.6zM20.8 12.32v17.6c1.88-1.76 6.8-2.28 11.2-2.28V10.08c-4.4 0-9.32.48-11.2 2.24zm8.04 11.84a23.2 23.2 0 0 0-5.44.88h-.2a.8.8 0 0 1-.24-1.56 24.76 24.76 0 0 1 5.8-.96.802.802 0 1 1 .12 1.6l-.04.04zm0-3a23.24 23.24 0 0 0-5.4.84h-.24a.8.8 0 0 1-.24-1.56 24.76 24.76 0 0 1 5.8-.96.802.802 0 0 1 .12 1.6l-.04.08zm0-3.2a23.24 23.24 0 0 0-5.44.88h-.2a.8.8 0 0 1-.24-1.56 24.76 24.76 0 0 1 5.8-.96.802.802 0 1 1 .12 1.6l-.04.04zm0-3a23.2 23.2 0 0 0-5.44.88h-.2a.8.8 0 0 1-.24-1.56 24.76 24.76 0 0 1 5.8-.96.802.802 0 0 1 .12 1.6l-.04.04z"/>
        </g>
    </g>
</svg>
