<svg xmlns="http://www.w3.org/2000/svg" width="40" height="40" viewBox="0 0 40 40">
    <g fill="none" fill-rule="evenodd">
        <circle cx="20" cy="20" r="20" fill="#FFF"/>
        <g fill="#2D4252" fill-rule="nonzero">
            <path d="M26.735 27.084l-3.406-2.245a1.587 1.587 0 0 0-2.168.426c-.774.967-1.742 2.554-5.342-1.084-3.6-3.64-2.051-4.568-1.084-5.342a1.587 1.587 0 0 0 .426-2.13l-2.245-3.406c-.31-.426-.697-1.122-1.626-1.006-.929.116-3.29 1.47-3.29 4.413 0 2.942 2.323 6.58 5.497 9.755C16.67 29.639 20.31 32 23.29 32c2.981 0 4.336-2.632 4.452-3.29.116-.658-.58-1.355-1.007-1.626zM18.839 8a.774.774 0 1 0 0 1.548c6.413 0 11.613 5.2 11.613 11.613a.774.774 0 0 0 1.548 0C32 13.893 26.107 8 18.839 8z"/>
            <path d="M18.839 11.871a.774.774 0 1 0 0 1.548 7.742 7.742 0 0 1 7.742 7.742.774.774 0 1 0 1.548 0 9.29 9.29 0 0 0-9.29-9.29z"/>
            <path d="M22.323 21.161a.774.774 0 0 0 1.548 0 5.032 5.032 0 0 0-5.032-5.032.774.774 0 1 0 0 1.548 3.484 3.484 0 0 1 3.484 3.484z"/>
        </g>
    </g>
</svg>
