<svg xmlns="http://www.w3.org/2000/svg" xmlns:xlink="http://www.w3.org/1999/xlink" width="18" height="18" viewBox="0 0 18 18">
    <defs>
        <path id="a" d="M12.864 11.32h-.813l-.288-.277A6.66 6.66 0 0 0 13.38 6.69a6.69 6.69 0 1 0-6.69 6.69 6.66 6.66 0 0 0 4.354-1.617l.278.288v.813L16.467 18 18 16.467l-5.136-5.146zm-6.174 0a4.625 4.625 0 0 1-4.632-4.63A4.625 4.625 0 0 1 6.69 2.058a4.625 4.625 0 0 1 4.63 4.632 4.625 4.625 0 0 1-4.63 4.63z"/>
    </defs>
    <g fill="none" fill-rule="evenodd">
        <circle cx="6.5" cy="6.5" r="5.5" fill="#D8D8D8"/>
        <use fill="#757575" fill-rule="nonzero" xlink:href="#a"/>
    </g>
</svg>
