<svg xmlns="http://www.w3.org/2000/svg" width="40" height="40" viewBox="0 0 40 40">
    <g fill="none" fill-rule="evenodd">
        <circle cx="20" cy="20" r="20" fill="#FFF"/>
        <path fill="#2D4252" fill-rule="nonzero" d="M30.222 21.333h.89a1.778 1.778 0 1 0 0-3.555h-9.779c.595-2.625.893-5.309.89-8a1.778 1.778 0 1 0-3.556 0s-1.778 9.778-8 9.778H8v10.666h4.444c1.778 0 5.334 1.778 7.112 1.778h8.888a1.778 1.778 0 1 0 0-3.556h.89a1.778 1.778 0 1 0 0-3.555h.888a1.778 1.778 0 1 0 0-3.556"/>
    </g>
</svg>
