<svg xmlns="http://www.w3.org/2000/svg" width="40" height="40" viewBox="0 0 40 40">
    <g fill="none" fill-rule="evenodd">
        <circle cx="20" cy="20" r="20" fill="#FFF"/>
        <path fill="#2D4252" fill-rule="nonzero" d="M20 8C13.373 8 8 13.373 8 20s5.373 12 12 12 12-5.373 12-12S26.627 8 20 8zm1.72 10A2.48 2.48 0 0 1 24 16.8a2.48 2.48 0 0 1 2.28 1.16.8.8 0 1 1-1.32.88c-.2-.28-.32-.44-.92-.44-.6 0-.8.2-.92.4a.806.806 0 0 1-1.4-.8zM16 16a1.6 1.6 0 1 1 0 3.2 1.6 1.6 0 0 1 0-3.2zm11.08 7.96a8.2 8.2 0 0 1-14.2-.12.806.806 0 1 1 1.4-.8 6.6 6.6 0 0 0 11.4.08.8.8 0 1 1 1.36.8l.04.04z"/>
    </g>
</svg>
