<svg xmlns="http://www.w3.org/2000/svg" xmlns:xlink="http://www.w3.org/1999/xlink" width="32" height="24" viewBox="0 0 32 24">
    <defs>
        <rect id="a" width="32" height="24" rx="2"/>
    </defs>
    <g fill="none" fill-rule="evenodd">
        <mask id="b" fill="#fff">
            <use xlink:href="#a"/>
        </mask>
        <use fill="#E34F4F" xlink:href="#a"/>
        <path fill="#B22234" fill-rule="nonzero" d="M0 0h45.498v24H0z" mask="url(#b)"/>
        <path fill="#FFF" fill-rule="nonzero" d="M45.498 20.31v1.842H0V20.31h45.498zm0-3.693v1.842H0v-1.842h45.498zm0-3.692v1.842H0v-1.842h45.498zm0-3.692v1.842H0V9.233h45.498zm0-3.692v1.842H0V5.54h45.498zm0-3.693V3.69H0V1.848h45.498z" mask="url(#b)"/>
        <path fill="#3C3B6E" fill-rule="nonzero" d="M0 0h18.199v12.923H0z" mask="url(#b)"/>
        <g fill="#FFF" fill-rule="nonzero" mask="url(#b)">
            <path d="M1.517.554L1.95 1.89.816 1.064h1.401l-1.133.826zM1.517 3.138l.433 1.336L.816 3.65h1.401l-1.133.825zM1.517 5.723L1.95 7.06.816 6.233h1.401l-1.133.826zM1.517 8.308l.433 1.336-1.134-.826h1.401l-1.133.826zM1.517 10.892l.433 1.336-1.134-.825h1.401l-1.133.825zM3.033 1.846l.433 1.336-1.134-.826h1.402L2.6 3.182zM3.033 4.43l.433 1.337-1.134-.826h1.402L2.6 5.767zM3.033 7.015l.433 1.336-1.134-.825h1.402L2.6 8.35zM3.033 9.6l.433 1.336-1.134-.826h1.402l-1.134.826zM4.55.554l.433 1.336-1.134-.826h1.402l-1.134.826zM4.55 3.138l.433 1.336-1.134-.825h1.402l-1.134.825zM4.55 5.723l.433 1.336-1.134-.826h1.402l-1.134.826zM4.55 8.308l.433 1.336-1.134-.826h1.402l-1.134.826zM4.55 10.892l.433 1.336-1.134-.825h1.402l-1.134.825zM6.066 1.846L6.5 3.182l-1.133-.826h1.401l-1.134.826zM6.066 4.43L6.5 5.768 5.366 4.94h1.401l-1.134.826zM6.066 7.015L6.5 8.351l-1.133-.825h1.401l-1.134.825zM6.066 9.6l.433 1.336-1.133-.826h1.401l-1.134.826zM7.583.554l.433 1.336-1.134-.826h1.402L7.15 1.89zM7.583 3.138l.433 1.336-1.134-.825h1.402l-1.134.825zM7.583 5.723l.433 1.336-1.134-.826h1.402L7.15 7.06zM7.583 8.308l.433 1.336-1.134-.826h1.402l-1.134.826zM7.583 10.892l.433 1.336-1.134-.825h1.402l-1.134.825zM9.1 1.846l.433 1.336-1.134-.826H9.8l-1.134.826zM9.1 4.43l.433 1.337-1.134-.826H9.8l-1.134.826zM9.1 7.015l.433 1.336-1.134-.825H9.8l-1.134.825zM9.1 9.6l.433 1.336-1.134-.826H9.8l-1.134.826zM10.616.554l.433 1.336-1.134-.826h1.402l-1.134.826zM10.616 3.138l.433 1.336-1.134-.825h1.402l-1.134.825zM10.616 5.723l.433 1.336-1.134-.826h1.402l-1.134.826zM10.616 8.308l.433 1.336-1.134-.826h1.402l-1.134.826zM10.616 10.892l.433 1.336-1.134-.825h1.402l-1.134.825zM12.133 1.846l.433 1.336-1.134-.826h1.401l-1.133.826zM12.133 4.43l.433 1.337-1.134-.826h1.401l-1.133.826zM12.133 7.015l.433 1.336-1.134-.825h1.401L11.7 8.35zM12.133 9.6l.433 1.336-1.134-.826h1.401l-1.133.826zM13.65.554l.432 1.336-1.133-.826h1.401l-1.134.826zM13.65 3.138l.432 1.336-1.133-.825h1.401l-1.134.825zM13.65 5.723l.432 1.336-1.133-.826h1.401l-1.134.826zM13.65 8.308l.432 1.336-1.133-.826h1.401l-1.134.826zM13.65 10.892l.432 1.336-1.133-.825h1.401l-1.134.825zM15.166 1.846l.433 1.336-1.134-.826h1.402l-1.134.826zM15.166 4.43l.433 1.337-1.134-.826h1.402l-1.134.826zM15.166 7.015l.433 1.336-1.134-.825h1.402l-1.134.825zM15.166 9.6l.433 1.336-1.134-.826h1.402l-1.134.826zM16.682.554l.434 1.336-1.134-.826h1.401l-1.134.826zM16.682 3.138l.434 1.336-1.134-.825h1.401l-1.134.825zM16.682 5.723l.434 1.336-1.134-.826h1.401l-1.134.826zM16.682 8.308l.434 1.336-1.134-.826h1.401l-1.134.826zM16.682 10.892l.434 1.336-1.134-.825h1.401l-1.134.825z"/>
        </g>
    </g>
</svg>
