<svg xmlns="http://www.w3.org/2000/svg" width="85" height="26" viewBox="0 0 85 26">
    <g fill="none" fill-rule="evenodd">
        <path fill="#3F5B70" d="M19.14 12.754a6.28 6.28 0 0 1-1.852 4.47 6.28 6.28 0 0 1-4.47 1.852 6.28 6.28 0 0 1-4.47-1.852 6.28 6.28 0 0 1-1.852-4.47h-3.16a9.446 9.446 0 0 0 2.777 6.705 9.445 9.445 0 0 0 3.013 2.03 9.424 9.424 0 0 0 3.692.747 9.448 9.448 0 0 0 6.705-2.777 9.448 9.448 0 0 0 2.777-6.705h-3.16z"/>
        <path fill="#C4D600" d="M22.3 12.754a9.451 9.451 0 0 1-2.777 6.705 9.45 9.45 0 0 1-6.705 2.777 9.446 9.446 0 0 1-6.705-2.777 9.446 9.446 0 0 1-2.03-3.013 9.427 9.427 0 0 1-.747-3.692h3.16a6.28 6.28 0 0 1 1.852-4.47 6.28 6.28 0 0 1 4.47-1.851V.11c-1.706 0-3.362.335-4.922.995a12.597 12.597 0 0 0-4.018 2.708A12.592 12.592 0 0 0 1.17 7.832a12.566 12.566 0 0 0-.995 4.922c0 1.706.335 3.362.995 4.922a12.59 12.59 0 0 0 2.708 4.018 12.596 12.596 0 0 0 4.018 2.708c1.56.66 3.216.995 4.922.995 1.705 0 3.361-.335 4.922-.995a12.597 12.597 0 0 0 4.018-2.708 12.593 12.593 0 0 0 2.708-4.018c.66-1.56.995-3.216.995-4.922H22.3z"/>
        <path fill="#BFD130" d="M9.511 18.136a6.276 6.276 0 0 1 0 0"/>
        <path fill="#009CDE" d="M12.818 6.433v3.16a3.164 3.164 0 0 1 3.16 3.161 3.14 3.14 0 0 1-.925 2.235 3.141 3.141 0 0 1-2.235.926 3.164 3.164 0 0 1-3.16-3.16H6.495a6.28 6.28 0 0 0 1.852 4.469 6.28 6.28 0 0 0 4.47 1.852 6.28 6.28 0 0 0 4.47-1.852 6.28 6.28 0 0 0 1.851-4.47H22.3a9.448 9.448 0 0 0-2.777-6.705 9.448 9.448 0 0 0-6.705-2.777v3.16z"/>
        <path fill="#446076" d="M43.498 12.71c0 1.402-.488 2.58-1.462 3.537-.975.957-2.212 1.435-3.71 1.435-1.487 0-2.718-.478-3.692-1.435-.975-.956-1.462-2.135-1.462-3.536 0-1.377.487-2.544 1.462-3.5.974-.956 2.205-1.435 3.692-1.435 1.498 0 2.735.479 3.71 1.435.974.956 1.462 2.123 1.462 3.5m-8.06 0c0 .804.271 1.48.813 2.029.542.548 1.234.822 2.075.822.84 0 1.535-.274 2.083-.822.549-.549.823-1.225.823-2.03 0-.791-.274-1.458-.823-2-.548-.543-1.243-.814-2.083-.814-.841 0-1.533.271-2.075.813-.542.543-.813 1.21-.813 2.002M54.427 14.484a4.245 4.245 0 0 1-1.737 2.339c-.852.573-1.827.859-2.924.859-1.486 0-2.714-.478-3.682-1.435-.97-.956-1.453-2.135-1.453-3.536 0-1.377.484-2.543 1.453-3.5.968-.956 2.196-1.435 3.682-1.435 1.097 0 2.068.29 2.915.868a4.302 4.302 0 0 1 1.728 2.367c.048.122.042.223-.019.302-.06.079-.158.118-.292.118h-1.517a.495.495 0 0 1-.256-.064.501.501 0 0 1-.183-.191 2.668 2.668 0 0 0-.968-.923 2.778 2.778 0 0 0-1.408-.357c-.84 0-1.529.272-2.065.813-.536.543-.804 1.21-.804 2.002 0 .804.268 1.48.804 2.029.536.548 1.225.822 2.065.822.524 0 .99-.113 1.398-.338.409-.226.728-.527.96-.905a.498.498 0 0 1 .438-.238h1.536c.122 0 .216.037.283.11.067.073.082.171.046.293M60.367 20.752a.418.418 0 0 1-.137.229.406.406 0 0 1-.265.082h-1.371c-.122 0-.21-.037-.265-.11-.055-.073-.07-.17-.046-.292l.86-3.363H57.9a.404.404 0 0 1-.266-.082.413.413 0 0 1-.137-.229l-2.23-8.553c-.036-.122-.024-.22.037-.292.06-.073.152-.11.274-.11h1.645c.11 0 .198.027.265.082a.418.418 0 0 1 .137.229l1.682 7.091h.182l1.682-7.091a.415.415 0 0 1 .137-.229.405.405 0 0 1 .265-.082h1.663c.122 0 .21.037.265.11.055.073.07.17.046.292l-3.18 12.318zM72.137 17.06l-.128-.986c-.39.5-.872.892-1.444 1.178a4.192 4.192 0 0 1-1.901.43c-1.292 0-2.358-.478-3.198-1.435-.841-.956-1.261-2.135-1.261-3.536 0-1.377.42-2.543 1.26-3.5.841-.956 1.907-1.435 3.199-1.435.695 0 1.328.144 1.9.43.573.286 1.054.679 1.445 1.179l.128-1.006c.011-.121.048-.21.11-.265.06-.054.151-.082.273-.082h1.225c.122 0 .213.03.274.091.06.062.091.153.091.275v8.644c0 .122-.03.214-.091.275-.061.06-.152.09-.274.09H72.52c-.122 0-.213-.027-.274-.081-.061-.055-.098-.143-.11-.265m-2.905-1.5c.767 0 1.404-.273 1.91-.821.505-.549.758-1.225.758-2.03 0-.791-.253-1.458-.759-2-.505-.542-1.142-.814-1.91-.814-.767 0-1.404.272-1.91.813-.505.543-.758 1.21-.758 2.002 0 .804.253 1.48.759 2.029.505.548 1.142.822 1.91.822M78.405 17.042c0 .122-.03.214-.091.274-.061.061-.153.092-.274.092h-1.627c-.122 0-.213-.03-.274-.092-.061-.06-.091-.152-.091-.274V8.398c0-.122.03-.213.09-.275.062-.06.153-.091.275-.091h.987a.48.48 0 0 1 .32.1c.079.068.13.168.155.302l.183.969c.329-.512.758-.89 1.288-1.133.53-.244 1.13-.366 1.8-.366h.44c.889 0 1.644.29 2.266.868.62.58.932 1.453.932 2.623v5.647c0 .122-.031.214-.092.274-.061.061-.152.092-.274.092h-1.645c-.122 0-.213-.03-.274-.092-.061-.06-.091-.152-.091-.274V11.87c0-.61-.147-1.066-.439-1.37-.292-.305-.682-.458-1.17-.458h-.53c-.426 0-.844.147-1.252.44-.408.292-.612.828-.612 1.607v4.953z"/>
    </g>
</svg>
